Coordinates
version=1
nRows=12
nColumns=34
inDegrees=no

Units are S.I. units (second, meters, Newtons, ...)
If the header above contains a line with 'inDegrees', this indicates whether rotational values are in degrees (yes) or radians (no).

endheader
time	pelvis_tilt	pelvis_list	pelvis_rotation	pelvis_tx	pelvis_ty	pelvis_tz	hip_flexion_r	hip_adduction_r	hip_rotation_r	knee_angle_r	ankle_angle_r	subtalar_angle_r	mtp_angle_r	hip_flexion_l	hip_adduction_l	hip_rotation_l	knee_angle_l	ankle_angle_l	subtalar_angle_l	mtp_angle_l	lumbar_extension	lumbar_bending	lumbar_rotation	arm_flex_r	arm_add_r	arm_rot_r	elbow_flex_r	pro_sup_r	arm_flex_l	arm_add_l	arm_rot_l	elbow_flex_l	pro_sup_l
10.03	-0.329445	0.0284271	0.0406437	-0.239276	0.872329	-0.56126	0.884765	-0.171076	-0.0857505	0.885977	0.486886	-0.162485	-0.126303	0.888591	-0.19776	-0.134049	0.834538	0.292519	-0.0555569	-0.126318	-0.111757	0.0270919	0.00217526	0.812061	-0.397168	-0.149614	0.615796	1.89326	1.06416	-0.395818	0.00630486	0.544636	1.78595
10.04	-0.316185	0.0292616	0.0407882	-0.233692	0.878426	-0.560774	0.848786	-0.169541	-0.0900093	0.860494	0.480862	-0.159973	-0.126303	0.853572	-0.195254	-0.137405	0.810291	0.28568	-0.0550816	-0.126318	-0.104403	0.0262328	0.0004969	0.767425	-0.386181	-0.180997	0.610171	1.89489	1.02369	-0.397371	-0.00360511	0.530547	1.78658
10.05	-0.30263	0.030194	0.0410222	-0.228116	0.884449	-0.560312	0.812408	-0.168177	-0.0943587	0.834699	0.474701	-0.15709	-0.126303	0.818228	-0.192533	-0.140858	0.785816	0.278529	-0.0545469	-0.126318	-0.0977099	0.0253108	-0.00125084	0.723014	-0.375499	-0.209386	0.606152	1.89411	0.983072	-0.398322	-0.0136836	0.517568	1.78723
10.06	-0.288803	0.0312052	0.0412722	-0.222567	0.890377	-0.55987	0.775733	-0.166913	-0.0987392	0.808671	0.468476	-0.153998	-0.126303	0.782666	-0.189667	-0.144408	0.761241	0.271109	-0.0538971	-0.126318	-0.0917169	0.024335	-0.00301472	0.678965	-0.365189	-0.234464	0.603533	1.89098	0.942484	-0.398651	-0.0240587	0.505621	1.78775
10.07	-0.274763	0.0322662	0.0414604	-0.217062	0.896185	-0.559441	0.7389	-0.16566	-0.103087	0.782486	0.462223	-0.150838	-0.126303	0.747029	-0.186745	-0.148068	0.736699	0.263478	-0.0530733	-0.126318	-0.0864176	0.0233249	-0.00473728	0.635383	-0.355267	-0.256162	0.602142	1.88585	0.902068	-0.398368	-0.0348083	0.49467	1.7881
10.08	-0.260598	0.0333304	0.0415139	-0.21162	0.901848	-0.559019	0.702083	-0.164325	-0.107346	0.756225	0.455939	-0.147705	-0.126303	0.711501	-0.18387	-0.151851	0.712334	0.255713	-0.0520356	-0.126318	-0.0817631	0.0223208	-0.00636564	0.592362	-0.345722	-0.27459	0.601816	1.87936	0.861926	-0.397503	-0.0459459	0.484696	1.78831
10.09	-0.246414	0.034331	0.0413708	-0.206255	0.907338	-0.558599	0.665469	-0.162799	-0.111472	0.729968	0.4496	-0.144636	-0.126303	0.676284	-0.181156	-0.155758	0.688298	0.247901	-0.0507756	-0.126318	-0.0776747	0.0213907	-0.00785752	0.549994	-0.336538	-0.289949	0.602356	1.87232	0.822121	-0.396103	-0.057424	0.475696	1.7885
10.1	-0.232315	0.0351804	0.0409818	-0.200982	0.912629	-0.558176	0.629237	-0.160969	-0.115435	0.703796	0.443191	-0.141607	-0.126303	0.641585	-0.178732	-0.15977	0.664753	0.240144	-0.0493072	-0.126318	-0.074064	0.0206329	-0.00918663	0.50839	-0.327713	-0.302455	0.603512	1.86559	0.782677	-0.394214	-0.0691738	0.467686	1.78878
10.11	-0.218383	0.0357727	0.0403141	-0.195812	0.9177	-0.557747	0.593526	-0.158714	-0.119226	0.677786	0.436725	-0.138536	-0.126303	0.607591	-0.17674	-0.163854	0.641869	0.232557	-0.0476469	-0.126318	-0.0708567	0.0201738	-0.0103529	0.467694	-0.319262	-0.312287	0.604982	1.8598	0.743585	-0.391874	-0.0811603	0.460722	1.7891
10.12	-0.204666	0.0359899	0.0393532	-0.190753	0.922533	-0.557311	0.558419	-0.155914	-0.122858	0.651998	0.430263	-0.135307	-0.126303	0.574447	-0.175326	-0.167958	0.619815	0.225272	-0.045797	-0.126318	-0.0680141	0.02016	-0.011395	0.428096	-0.311207	-0.31961	0.606429	1.85542	0.704801	-0.389108	-0.0934762	0.454899	1.7894
10.13	-0.191172	0.035714	0.0381006	-0.185815	0.927116	-0.556869	0.52394	-0.152466	-0.126361	0.626485	0.423899	-0.131802	-0.126303	0.542246	-0.174628	-0.172024	0.598749	0.218422	-0.0437407	-0.126318	-0.0655413	0.0207381	-0.0123873	0.389827	-0.303569	-0.324631	0.60749	1.85277	0.666263	-0.385923	-0.106355	0.45034	1.78964
10.14	-0.177872	0.0348493	0.0365672	-0.181004	0.931441	-0.556419	0.490064	-0.148296	-0.129768	0.601289	0.417742	-0.127925	-0.126303	0.511027	-0.174755	-0.176001	0.578803	0.212135	-0.0414525	-0.126318	-0.0634864	0.0220197	-0.0134175	0.353137	-0.296345	-0.327657	0.607814	1.85212	0.627926	-0.382307	-0.120107	0.447141	1.78981
